<?xml version="1.0" encoding="iso-8859-1"?>
<!-- Uploaded to: SVG Repo, www.svgrepo.com, Generator: SVG Repo Mixer Tools -->
<svg version="1.1" id="Layer_1" xmlns="http://www.w3.org/2000/svg" xmlns:xlink="http://www.w3.org/1999/xlink" 
	 viewBox="0 0 512 512" xml:space="preserve">
<polygon style="fill:#946C55;" points="489.483,254.508 177.787,254.508 177.787,478.458 503.534,478.458 503.534,283.174 "/>
<polygon style="fill:#FF8C64;" points="503.534,283.174 418.874,110.467 93.126,110.467 177.787,283.174 "/>
<polygon style="fill:#FFA080;" points="435.474,144.331 418.874,110.467 93.126,110.467 109.727,144.331 "/>
<polygon style="fill:#C89173;" points="8.466,478.458 8.466,283.174 93.126,110.467 177.787,283.174 177.787,478.458 "/>
<g>
	<rect x="49.202" y="303.705" style="fill:#946C55;" width="87.855" height="174.75"/>
	<rect x="302.328" y="55.156" style="fill:#946C55;" width="74.501" height="115.894"/>
</g>
<rect x="302.328" y="55.156" style="fill:#7A5946;" width="33.864" height="115.894"/>
<rect x="290.204" y="33.544" style="fill:#C89173;" width="100.915" height="35.581"/>
<rect x="290.204" y="33.544" style="fill:#AD7E64;" width="33.864" height="35.581"/>
<path d="M8.466,486.922c0,0,40.725,0,40.736,0c0,0,87.849,0,87.859,0c0,0,40.714,0,40.725,0h325.747
	c4.676,0,8.466-3.791,8.466-8.466V283.173c0-0.077-0.001-0.155-0.005-0.289c-0.002-0.067-0.012-0.132-0.017-0.198
	c-0.007-0.114-0.018-0.227-0.028-0.34c-0.021-0.219-0.052-0.437-0.09-0.655c-0.019-0.111-0.038-0.22-0.062-0.331
	c-0.053-0.244-0.12-0.484-0.195-0.724c-0.024-0.077-0.042-0.154-0.068-0.229c-0.1-0.291-0.216-0.58-0.397-0.962l-84.66-172.707
	c-1.422-2.901-4.371-4.74-7.601-4.74h-33.575V77.59h5.82c4.676,0,8.466-3.791,8.466-8.466v-35.58c0-4.676-3.791-8.466-8.466-8.466
	h-24.484c-4.676,0-8.466,3.791-8.466,8.466s3.791,8.466,8.466,8.466h16.018v18.649h-83.984V42.01h34.102
	c4.676,0,8.466-3.791,8.466-8.466s-3.791-8.466-8.466-8.466h-42.568c-4.676,0-8.466,3.791-8.466,8.466v35.581
	c0,4.676,3.791,8.466,8.466,8.466h3.664v24.41c0,0-200.739,0-200.744,0c-1.666,0.001-3.374,0.542-4.749,1.479
	c-1.204,0.821-2.203,1.948-2.847,3.26l-40.103,81.811c-2.058,4.198-0.323,9.27,3.875,11.329c4.198,2.056,9.27,0.323,11.329-3.875
	l32.497-66.304l76.194,155.435V469.99h-23.803V303.7c0-4.676-3.791-8.466-8.466-8.466H49.202c-4.676,0-8.466,3.791-8.466,8.466
	v166.29H16.932V285.136l27.828-56.77c2.058-4.198,0.323-9.27-3.875-11.329c-4.199-2.059-9.271-0.323-11.329,3.875L0.865,279.447
	C0.296,280.607,0,281.882,0,283.173v195.283C0,483.132,3.791,486.922,8.466,486.922z M495.068,469.992H186.253v-50.796h308.815
	V469.992z M495.068,402.263H186.253v-56.44h308.815V402.263z M310.797,77.591h57.569v84.99h-57.569v-52.115c0-0.003,0-0.007,0-0.011
	V77.591z M106.706,118.932h187.16v52.114c0,4.676,3.791,8.466,8.466,8.466h74.501c4.676,0,8.466-3.791,8.466-8.466v-52.114h28.296
	l68.286,139.302l8.074,16.473h-71.767c-4.676,0-8.466,3.791-8.466,8.466c0,4.604,3.866,8.467,8.467,8.467h76.878v37.251H186.253
	V291.64h198.071c4.676,0,8.466-3.791,8.466-8.466c0-4.587-3.844-8.466-8.466-8.466H183.066L106.706,118.932z M57.668,312.167h70.917
	V469.99H57.668V312.167z"/>
</svg>